# xmcd
#
# Track frame offsets: 
#        150
#        17507
#        29695
#        52837
#        67932
#        89330
#        105265
#        115417
#        136672
#        151220
#        163362
#        179750
#        195547
#        212882
#
# Disc length: 2931 seconds
#
# Revision: 3
# Processed by: cddbd v1.5.2PL0 Copyright (c) Steve Scherf et al.
# Submitted via: ExactAudioCopy v0.99pb5
#
DISCID=b90b710e
DTITLE=Alvin Youngblood Hart - Big Mama's Door
DYEAR=1996
DGENRE=Blues
TTITLE0=Big Mama's Door
TTITLE1=Joe Friday
TTITLE2=Them Fair Weather Friends
TTITLE3=France Blues
TTITLE4=Gallows Pole
TTITLE5=Pony Blues
TTITLE6=Amazed 'N' Amused
TTITLE7=Things 'Bout Coming My Way
TTITLE8=When I was A Cowboy
TTITLE9=Rest Your Saddle
TTITLE10=If Blues Were Money
TTITLE11=Hillbilly Willie's Blues
TTITLE12=Livin' In A Strain
TTITLE13=That Kate Adams Jive
EXTD=
EXTT0=
EXTT1=
EXTT2=
EXTT3=
EXTT4=
EXTT5=
EXTT6=
EXTT7=
EXTT8=
EXTT9=
EXTT10=
EXTT11=
EXTT12=
EXTT13=
PLAYORDER=
